<?xml version="1.0" ?><svg data-name="Layer 1" id="Layer_1" viewBox="0 0 64 64" xmlns="http://www.w3.org/2000/svg"><defs><style>.cls-1{fill:#fedb41;}.cls-2{fill:#002849;}</style></defs><title/><path class="cls-1" d="M53.16,10.71A29.91,29.91,0,0,0,34.65,2a23.47,23.47,0,0,1,1.76,1.59,23.19,23.19,0,0,1-32.8,32.8A23.47,23.47,0,0,1,2,34.67a30,30,0,1,0,51.14-24Z"/><path class="cls-2" d="M57.64,18.44a1,1,0,1,0,1.77-.93A31.07,31.07,0,0,0,34.74,1,1,1,0,0,0,34,2.81,22.19,22.19,0,0,1,20.84,42.21a1,1,0,0,0,0,2h0A24.19,24.19,0,0,0,37.66,3.49a29.07,29.07,0,0,1,20,15Z"/><path class="cls-2" d="M60.17,21.67a1,1,0,0,0-.64,1.26A29,29,0,1,1,3.47,37.68a24.09,24.09,0,0,0,11.35,6,1,1,0,0,0,.43-2,22.12,22.12,0,0,1-10.93-6A22.45,22.45,0,0,1,2.8,34,1,1,0,0,0,1,34.76,31,31,0,1,0,61.43,22.31,1,1,0,0,0,60.17,21.67Z"/></svg>