<?xml version="1.0" ?><svg data-name="Layer 1" id="Layer_1" viewBox="0 0 64 64" xmlns="http://www.w3.org/2000/svg"><defs><style>.cls-1{fill:#ff5939;}.cls-2{fill:#002849;}</style></defs><title/><path class="cls-1" d="M31.81,11A21.08,21.08,0,0,0,10.72,32s0,0,0,0A21.08,21.08,0,1,0,31.81,11Z"/><path class="cls-2" d="M7.07,31H2.24a1,1,0,0,0,0,2H7.07a1,1,0,0,0,0-2Z"/><path class="cls-2" d="M42.53,49A20.09,20.09,0,0,1,12.28,27.34a1,1,0,0,0-1.95-.47A22.09,22.09,0,0,0,43.6,50.72,1,1,0,1,0,42.53,49Z"/><path class="cls-2" d="M31.81,10A22.11,22.11,0,0,0,12.47,21.37a1,1,0,0,0,1.75,1,20.09,20.09,0,1,1,32,23.73,1,1,0,1,0,1.43,1.4A22.08,22.08,0,0,0,31.81,10Z"/><path class="cls-2" d="M30.81,2V6.88a1,1,0,1,0,2,0V2a1,1,0,1,0-2,0Z"/><path class="cls-2" d="M31.81,56.13a1,1,0,0,0-1,1V62a1,1,0,1,0,2,0V57.13A1,1,0,0,0,31.81,56.13Z"/><path class="cls-2" d="M61.76,31H56.93a1,1,0,0,0,0,2h4.83a1,1,0,0,0,0-2Z"/><path class="cls-2" d="M50.28,49.06a1,1,0,0,0-1.41,1.41l3.42,3.42a1,1,0,0,0,1.41-1.41Z"/><path class="cls-2" d="M9.92,10.11a1,1,0,0,0,0,1.41l3.42,3.42a1,1,0,0,0,1.41-1.41l-3.42-3.42A1,1,0,0,0,9.92,10.11Z"/><path class="cls-2" d="M13.33,49.06,9.92,52.48a1,1,0,1,0,1.41,1.41l3.42-3.42a1,1,0,0,0-1.41-1.41Z"/><path class="cls-2" d="M52.28,10.11l-3.42,3.42a1,1,0,1,0,1.41,1.41l3.42-3.42a1,1,0,0,0-1.41-1.41Z"/></svg>