<?xml version="1.0" ?><svg data-name="Layer 1" id="Layer_1" viewBox="0 0 64 64" xmlns="http://www.w3.org/2000/svg"><defs><style>.cls-1{fill:#fedb41;}.cls-2{fill:#002849;}</style></defs><title/><path class="cls-1" d="M26.85,12.46A24.6,24.6,0,0,0,9.4,19.69l35,35a24.72,24.72,0,0,0-17.5-42.19Z"/><path class="cls-2" d="M16.58,14.67a1,1,0,0,0-1.34-.44A25.68,25.68,0,0,0,8.69,19a1,1,0,0,0,0,1.41L33.45,45.16a1,1,0,0,0,1.41-1.41l-24-24a23.69,23.69,0,0,1,5.3-3.7A1,1,0,0,0,16.58,14.67Z"/><path class="cls-2" d="M19.36,13.6a1,1,0,0,0,1.23.7,23.75,23.75,0,0,1,30,22.9,23.52,23.52,0,0,1-6.24,16L39.15,48a1,1,0,0,0-1.41,1.41l5.92,5.92a1,1,0,0,0,1.41,0,25.73,25.73,0,0,0-25-43A1,1,0,0,0,19.36,13.6Z"/><path class="cls-2" d="M27.85,7.67V2a1,1,0,0,0-2,0V7.67a1,1,0,0,0,2,0Z"/><path class="cls-2" d="M62,36.15H56.33a1,1,0,0,0,0,2H62a1,1,0,0,0,0-2Z"/><path class="cls-2" d="M48.4,57.28A1,1,0,0,0,47,58.7l4,4a1,1,0,0,0,1.41-1.41Z"/><path class="cls-2" d="M6,17.3a1,1,0,0,0,.71-1.71l-4-4A1,1,0,0,0,1.29,13l4,4A1,1,0,0,0,6,17.3Z"/><path class="cls-2" d="M48.4,17l4-4A1,1,0,0,0,51,11.59l-4,4A1,1,0,1,0,48.4,17Z"/></svg>