<?xml version="1.0" ?><svg data-name="Layer 1" id="Layer_1" viewBox="0 0 64 64" xmlns="http://www.w3.org/2000/svg"><defs><style>.cls-1{fill:#ff5939;}.cls-2{fill:#002849;}</style></defs><title/><path class="cls-1" d="M32.35,13.44A21.08,21.08,0,0,0,14.05,45h36.6a21.08,21.08,0,0,0-18.3-31.54Z"/><path class="cls-2" d="M31.35,4.52V9.35a1,1,0,1,0,2,0V4.52a1,1,0,1,0-2,0Z"/><path class="cls-2" d="M57.48,33.48a1,1,0,0,0,0,2h4.83a1,1,0,0,0,0-2Z"/><path class="cls-2" d="M2.4,33.48a1,1,0,0,0,0,2H7.23a1,1,0,0,0,0-2Z"/><path class="cls-2" d="M10.46,12.59a1,1,0,0,0,0,1.41l3.42,3.42A1,1,0,0,0,15.3,16l-3.42-3.42A1,1,0,0,0,10.46,12.59Z"/><path class="cls-2" d="M52.83,12.59,49.41,16a1,1,0,1,0,1.41,1.41L54.25,14a1,1,0,0,0-1.41-1.41Z"/><path class="cls-2" d="M14.06,46H56.48a1,1,0,0,0,0-2H52.3a22.08,22.08,0,1,0-40-18.61,1,1,0,0,0,1.82.83A20.08,20.08,0,1,1,50.07,44H14.64a20,20,0,0,1-2.37-9.46,20.32,20.32,0,0,1,.25-3.18,1,1,0,0,0-2-.31,22.08,22.08,0,0,0,1.86,13H1.69a1,1,0,1,0,0,2Z"/><path class="cls-2" d="M62.31,44H60.5a1,1,0,0,0,0,2h1.81a1,1,0,0,0,0-2Z"/><path class="cls-2" d="M40.69,48.65H20.83a1,1,0,0,0,0,2H40.69a1,1,0,0,0,0-2Z"/><path class="cls-2" d="M17.18,48.65H7.87a1,1,0,0,0,0,2h9.31a1,1,0,1,0,0-2Z"/><path class="cls-2" d="M57.35,52.9H54.83a1,1,0,0,0,0,2h2.52a1,1,0,0,0,0-2Z"/><path class="cls-2" d="M51.65,53.9a1,1,0,0,0-1-1H28.35a1,1,0,0,0,0,2h22.3A1,1,0,0,0,51.65,53.9Z"/><path class="cls-2" d="M35.45,58.48a1,1,0,0,0,0,2h5.78a1,1,0,0,0,0-2Z"/><path class="cls-2" d="M33.88,59.48a1,1,0,0,0-1-1h-9.4a1,1,0,0,0,0,2h9.4A1,1,0,0,0,33.88,59.48Z"/></svg>